<svg width="50" height="50" viewBox="0 0 50 50" fill="none" xmlns="http://www.w3.org/2000/svg">
<rect width="50" height="50" rx="10" fill="#48176D"/>
<path d="M44.0313 35.02C43.6113 35.8 43.0563 36.415 42.3663 36.865C41.7063 37.285 40.9263 37.495 40.0263 37.495C38.6163 37.495 37.4913 37.09 36.6513 36.28C35.8413 35.44 35.4363 34.3 35.4363 32.86V21.25C35.3163 19.78 34.9563 18.745 34.3563 18.145C33.7563 17.545 32.8563 17.245 31.6563 17.245C30.4563 17.245 29.3763 17.545 28.4163 18.145C27.4863 18.715 26.6613 19.705 25.9413 21.115V37.045H22.2513V21.835C22.2513 20.365 21.9363 19.24 21.3063 18.46C20.6763 17.65 19.7463 17.245 18.5163 17.245C17.2863 17.245 16.1463 17.605 15.0963 18.325C14.0463 19.015 13.2813 19.9 12.8013 20.98V37.045H9.11131V21.25C9.11131 18.91 8.48131 17.2 7.22131 16.12L9.69631 13.825C10.1763 14.095 10.6563 14.53 11.1363 15.13C11.6163 15.7 12.0063 16.36 12.3063 17.11C13.1463 16.12 14.1213 15.34 15.2313 14.77C16.3413 14.2 17.5113 13.915 18.7413 13.915C20.0613 13.915 21.2763 14.245 22.3863 14.905C23.4963 15.565 24.3513 16.45 24.9513 17.56C25.8213 16.45 26.8413 15.565 28.0113 14.905C29.1813 14.245 30.4113 13.915 31.7013 13.915C33.9513 13.915 35.7513 14.53 37.1013 15.76C38.4513 16.99 39.1263 18.79 39.1263 21.16V32.995C39.1263 33.325 39.2313 33.61 39.4413 33.85C39.6513 34.06 39.9213 34.165 40.2513 34.165C40.7313 34.165 41.1063 33.895 41.3763 33.355L44.0313 35.02Z" fill="white"/>
</svg>
