<svg width="151" height="35" viewBox="0 0 151 35" fill="none" xmlns="http://www.w3.org/2000/svg">
<path d="M44.278 31.624C43.774 32.56 43.108 33.298 42.28 33.838C41.488 34.342 40.552 34.594 39.472 34.594C37.78 34.594 36.43 34.108 35.422 33.136C34.45 32.128 33.964 30.76 33.964 29.032V15.1C33.82 13.336 33.388 12.094 32.668 11.374C31.948 10.654 30.868 10.294 29.428 10.294C27.988 10.294 26.692 10.654 25.54 11.374C24.424 12.058 23.434 13.246 22.57 14.938V34.054H18.142V15.802C18.142 14.038 17.764 12.688 17.008 11.752C16.252 10.78 15.136 10.294 13.66 10.294C12.184 10.294 10.816 10.726 9.556 11.59C8.296 12.418 7.378 13.48 6.802 14.776V34.054H2.374V15.1C2.374 12.292 1.618 10.24 0.106 8.944L3.076 6.19C3.652 6.514 4.228 7.036 4.804 7.756C5.38 8.44 5.848 9.232 6.208 10.132C7.216 8.944 8.386 8.008 9.718 7.324C11.05 6.64 12.454 6.298 13.93 6.298C15.514 6.298 16.972 6.694 18.304 7.486C19.636 8.278 20.662 9.34 21.382 10.672C22.426 9.34 23.65 8.278 25.054 7.486C26.458 6.694 27.934 6.298 29.482 6.298C32.182 6.298 34.342 7.036 35.962 8.512C37.582 9.988 38.392 12.148 38.392 14.992V29.194C38.392 29.59 38.518 29.932 38.77 30.22C39.022 30.472 39.346 30.598 39.742 30.598C40.318 30.598 40.768 30.274 41.092 29.626L44.278 31.624ZM54.2482 34.54C51.5842 34.54 49.2982 33.964 47.3902 32.812C45.5182 31.624 44.0962 30.04 43.1242 28.06C42.1522 26.044 41.6662 23.794 41.6662 21.31C41.6662 18.862 42.1342 16.486 43.0702 14.182C44.0062 11.878 45.4102 9.97 47.2822 8.458C49.1542 6.946 51.4582 6.19 54.1942 6.19C55.9942 6.19 57.6682 6.55 59.2162 7.27C60.7642 7.954 61.9882 8.962 62.8882 10.294C63.8242 11.59 64.2922 13.102 64.2922 14.83C64.2922 17.602 63.1582 19.78 60.8902 21.364C58.6222 22.948 55.6702 23.704 52.0342 23.632L46.4182 23.524C46.8142 25.756 47.6782 27.484 49.0102 28.708C50.3782 29.896 52.1782 30.49 54.4102 30.49C57.3262 30.49 60.0982 29.518 62.7262 27.574L65.1562 30.652C61.7362 33.244 58.1002 34.54 54.2482 34.54ZM52.0342 19.744C54.4462 19.744 56.3542 19.33 57.7582 18.502C59.1622 17.674 59.8642 16.432 59.8642 14.776C59.8642 13.3 59.3242 12.166 58.2442 11.374C57.2002 10.582 55.9402 10.186 54.4642 10.186C52.8082 10.186 51.3682 10.69 50.1442 11.698C48.9202 12.67 47.9842 13.894 47.3362 15.37C46.6882 16.846 46.3102 18.304 46.2022 19.744H52.0342ZM94.684 31.624C94.18 32.56 93.514 33.298 92.686 33.838C91.894 34.342 90.958 34.594 89.878 34.594C88.186 34.594 86.836 34.108 85.828 33.136C84.856 32.128 84.37 30.76 84.37 29.032V15.802C84.37 14.002 83.992 12.634 83.236 11.698C82.48 10.726 81.184 10.24 79.348 10.24C77.692 10.24 76.27 10.636 75.082 11.428C73.93 12.22 72.742 13.426 71.518 15.046V34.054H67.09V15.1C67.09 12.292 66.334 10.24 64.822 8.944L67.792 6.19C68.404 6.514 68.998 7.054 69.574 7.81C70.15 8.53 70.618 9.358 70.978 10.294C73.21 7.594 76.09 6.244 79.618 6.244C82.282 6.244 84.442 6.964 86.098 8.404C87.754 9.808 88.654 11.806 88.798 14.398V29.194C88.798 29.59 88.924 29.932 89.176 30.22C89.428 30.472 89.752 30.598 90.1481 30.598C90.724 30.598 91.174 30.274 91.498 29.626L94.684 31.624ZM101.742 34.54C99.222 34.54 97.314 33.784 96.018 32.272C94.758 30.724 94.128 28.582 94.128 25.846V0.0339996H98.556V7H106.818V10.996H98.556V25.846C98.556 27.142 98.826 28.24 99.366 29.14C99.906 30.004 100.698 30.436 101.742 30.436C102.786 30.436 103.668 30.148 104.388 29.572C105.108 28.96 105.666 28.15 106.062 27.142L109.518 29.356C107.79 32.812 105.198 34.54 101.742 34.54ZM120.564 34.54C118.008 34.54 115.704 33.928 113.652 32.704C111.636 31.48 110.052 29.806 108.9 27.682C107.748 25.522 107.172 23.092 107.172 20.392C107.172 17.692 107.748 15.262 108.9 13.102C110.088 10.906 111.69 9.196 113.706 7.972C115.758 6.712 118.062 6.082 120.618 6.082C123.174 6.082 125.46 6.694 127.476 7.918C129.528 9.142 131.13 10.852 132.282 13.048C133.434 15.208 134.01 17.638 134.01 20.338C134.01 23.038 133.434 25.468 132.282 27.628C131.13 29.788 129.528 31.48 127.476 32.704C125.424 33.928 123.12 34.54 120.564 34.54ZM120.618 30.544C123.318 30.544 125.478 29.608 127.098 27.736C128.754 25.864 129.582 23.398 129.582 20.338C129.582 17.242 128.754 14.758 127.098 12.886C125.478 11.014 123.318 10.078 120.618 10.078C118.854 10.078 117.288 10.51 115.92 11.374C114.552 12.238 113.49 13.444 112.734 14.992C111.978 16.54 111.6 18.322 111.6 20.338C111.6 23.398 112.428 25.864 114.084 27.736C115.74 29.608 117.918 30.544 120.618 30.544ZM146.834 6.082C147.878 6.082 149.12 6.262 150.56 6.622L150.452 10.888C149.012 10.492 147.842 10.294 146.942 10.294C145.25 10.294 143.936 10.69 143 11.482C141.92 12.346 140.984 13.498 140.192 14.938V34.054H135.764V14.938C135.764 12.13 135.008 10.078 133.496 8.782L136.466 6.028C137.006 6.352 137.546 6.838 138.086 7.486C138.662 8.134 139.13 8.872 139.49 9.7C140.282 8.692 141.092 7.918 141.92 7.378C143.288 6.514 144.926 6.082 146.834 6.082Z" fill="#ffffff"/>
</svg>
