<svg width="377" height="399" viewBox="0 0 377 399" fill="none" xmlns="http://www.w3.org/2000/svg">
<path d="M322 166C322 242.842 256.567 307 173.5 307C90.4331 307 25 242.842 25 166C25 89.1575 90.4331 25 173.5 25C256.567 25 322 89.1575 322 166Z" stroke="#FF6B00" stroke-width="50"/>
<path d="M346 180C346 256.842 280.567 321 197.5 321C114.433 321 49 256.842 49 180C49 103.157 114.433 39 197.5 39C280.567 39 346 103.157 346 180Z" stroke="#006CFB" stroke-width="50"/>
<circle cx="189" cy="211" r="170.5" fill="white" stroke="#48176D" stroke-width="35"/>
<path d="M89.7091 231C89.4691 231 89.2651 230.916 89.0971 230.748C88.9291 230.58 88.8451 230.376 88.8451 230.136V206.7C88.8451 206.436 88.9171 206.22 89.0611 206.052C89.2291 205.884 89.4451 205.8 89.7091 205.8H99.0331C101.961 205.8 104.253 206.484 105.909 207.852C107.589 209.22 108.429 211.164 108.429 213.684C108.429 215.436 107.997 216.912 107.133 218.112C106.293 219.288 105.117 220.14 103.605 220.668L108.861 229.848C108.933 229.992 108.969 230.124 108.969 230.244C108.969 230.46 108.885 230.64 108.717 230.784C108.573 230.928 108.405 231 108.213 231H104.937C104.553 231 104.253 230.916 104.037 230.748C103.845 230.58 103.665 230.34 103.497 230.028L98.8531 221.496H93.8491V230.136C93.8491 230.376 93.7651 230.58 93.5971 230.748C93.4531 230.916 93.2491 231 92.9851 231H89.7091ZM98.9251 217.428C100.365 217.428 101.445 217.104 102.165 216.456C102.909 215.808 103.281 214.872 103.281 213.648C103.281 212.424 102.909 211.476 102.165 210.804C101.445 210.132 100.365 209.796 98.9251 209.796H93.8491V217.428H98.9251ZM120.7 234.6C120.46 234.6 120.256 234.516 120.088 234.348C119.92 234.204 119.836 234 119.836 233.736V231.216C118.108 231.048 116.62 230.64 115.372 229.992C114.148 229.32 113.212 228.504 112.564 227.544C111.94 226.56 111.604 225.516 111.556 224.412C111.556 224.196 111.628 224.016 111.772 223.872C111.94 223.728 112.132 223.656 112.348 223.656H115.552C115.816 223.656 116.02 223.716 116.164 223.836C116.332 223.932 116.488 224.1 116.632 224.34C116.896 225.156 117.448 225.84 118.288 226.392C119.152 226.944 120.34 227.22 121.852 227.22C123.532 227.22 124.804 226.944 125.668 226.392C126.532 225.816 126.964 225.024 126.964 224.016C126.964 223.344 126.748 222.792 126.316 222.36C125.884 221.928 125.224 221.556 124.336 221.244C123.448 220.908 122.14 220.524 120.412 220.092C117.58 219.42 115.504 218.532 114.184 217.428C112.888 216.3 112.24 214.704 112.24 212.64C112.24 210.768 112.912 209.196 114.256 207.924C115.624 206.628 117.484 205.836 119.836 205.548V203.064C119.836 202.8 119.92 202.596 120.088 202.452C120.256 202.284 120.46 202.2 120.7 202.2H122.896C123.136 202.2 123.34 202.284 123.508 202.452C123.676 202.62 123.76 202.824 123.76 203.064V205.62C125.32 205.836 126.652 206.304 127.756 207.024C128.884 207.72 129.736 208.536 130.312 209.472C130.912 210.408 131.236 211.32 131.284 212.208C131.284 212.424 131.212 212.604 131.068 212.748C130.924 212.892 130.744 212.964 130.528 212.964H127.18C126.652 212.964 126.292 212.736 126.1 212.28C125.98 211.512 125.512 210.876 124.696 210.372C123.88 209.844 122.86 209.58 121.636 209.58C120.316 209.58 119.272 209.832 118.504 210.336C117.736 210.84 117.352 211.572 117.352 212.532C117.352 213.204 117.544 213.756 117.928 214.188C118.312 214.62 118.912 215.004 119.728 215.34C120.568 215.676 121.768 216.048 123.328 216.456C125.44 216.936 127.12 217.476 128.368 218.076C129.64 218.676 130.576 219.432 131.176 220.344C131.776 221.256 132.076 222.42 132.076 223.836C132.076 225.9 131.332 227.592 129.844 228.912C128.356 230.208 126.328 230.988 123.76 231.252V233.736C123.76 233.976 123.676 234.18 123.508 234.348C123.34 234.516 123.136 234.6 122.896 234.6H120.7ZM153.103 231.36C151.087 231.36 149.323 230.976 147.811 230.208C146.299 229.44 145.135 228.396 144.319 227.076C143.503 225.732 143.095 224.22 143.095 222.54C143.095 220.404 144.019 218.076 145.867 215.556L152.455 206.52C152.599 206.304 152.755 206.136 152.923 206.016C153.115 205.872 153.367 205.8 153.679 205.8H157.027C157.243 205.8 157.423 205.884 157.567 206.052C157.711 206.196 157.783 206.376 157.783 206.592C157.783 206.712 157.723 206.868 157.603 207.06L152.563 214.044C153.043 213.924 153.559 213.864 154.111 213.864C155.719 213.912 157.195 214.32 158.539 215.088C159.907 215.832 160.987 216.852 161.779 218.148C162.595 219.444 163.003 220.884 163.003 222.468C163.003 224.076 162.595 225.564 161.779 226.932C160.987 228.276 159.835 229.356 158.323 230.172C156.835 230.964 155.095 231.36 153.103 231.36ZM153.067 227.22C154.435 227.22 155.587 226.812 156.523 225.996C157.459 225.156 157.927 223.992 157.927 222.504C157.927 221.04 157.459 219.9 156.523 219.084C155.587 218.244 154.435 217.824 153.067 217.824C151.699 217.824 150.547 218.244 149.611 219.084C148.675 219.9 148.207 221.04 148.207 222.504C148.207 223.992 148.675 225.156 149.611 225.996C150.547 226.812 151.699 227.22 153.067 227.22ZM167.213 231C166.973 231 166.769 230.916 166.601 230.748C166.433 230.58 166.349 230.376 166.349 230.136V226.572C166.349 226.332 166.433 226.128 166.601 225.96C166.769 225.768 166.973 225.672 167.213 225.672H170.813C171.053 225.672 171.257 225.768 171.425 225.96C171.593 226.128 171.677 226.332 171.677 226.572V230.136C171.677 230.376 171.593 230.58 171.425 230.748C171.257 230.916 171.053 231 170.813 231H167.213ZM187.656 231C187.416 231 187.212 230.916 187.044 230.748C186.876 230.58 186.792 230.376 186.792 230.136V225.528H175.38C175.14 225.528 174.936 225.444 174.768 225.276C174.6 225.108 174.516 224.904 174.516 224.664V222.216C174.516 221.832 174.648 221.472 174.912 221.136L185.532 206.412C185.652 206.22 185.832 206.076 186.072 205.98C186.312 205.86 186.576 205.8 186.864 205.8H190.788C191.052 205.8 191.256 205.884 191.4 206.052C191.568 206.196 191.652 206.4 191.652 206.664V221.28H194.856C195.12 221.28 195.336 221.364 195.504 221.532C195.672 221.676 195.756 221.88 195.756 222.144V224.664C195.756 224.904 195.672 225.108 195.504 225.276C195.336 225.444 195.132 225.528 194.892 225.528H191.652V230.136C191.652 230.376 191.568 230.58 191.4 230.748C191.256 230.916 191.052 231 190.788 231H187.656ZM186.9 221.424V211.02L179.52 221.424H186.9ZM211.14 231C210.9 231 210.696 230.916 210.528 230.748C210.36 230.58 210.276 230.376 210.276 230.136V225.528H198.864C198.624 225.528 198.42 225.444 198.252 225.276C198.084 225.108 198 224.904 198 224.664V222.216C198 221.832 198.132 221.472 198.396 221.136L209.016 206.412C209.136 206.22 209.316 206.076 209.556 205.98C209.796 205.86 210.06 205.8 210.348 205.8H214.272C214.536 205.8 214.74 205.884 214.884 206.052C215.052 206.196 215.136 206.4 215.136 206.664V221.28H218.34C218.604 221.28 218.82 221.364 218.988 221.532C219.156 221.676 219.24 221.88 219.24 222.144V224.664C219.24 224.904 219.156 225.108 218.988 225.276C218.82 225.444 218.616 225.528 218.376 225.528H215.136V230.136C215.136 230.376 215.052 230.58 214.884 230.748C214.74 230.916 214.536 231 214.272 231H211.14ZM210.384 221.424V211.02L203.004 221.424H210.384ZM222.888 231C222.648 231 222.444 230.916 222.276 230.748C222.108 230.58 222.024 230.376 222.024 230.136V228.3C222.024 227.652 222.324 227.088 222.924 226.608L228.612 220.956C231.084 219.012 232.8 217.5 233.76 216.42C234.744 215.316 235.236 214.236 235.236 213.18C235.236 212.052 234.924 211.164 234.3 210.516C233.7 209.868 232.788 209.544 231.564 209.544C230.364 209.544 229.416 209.904 228.72 210.624C228.024 211.32 227.592 212.232 227.424 213.36C227.352 213.648 227.22 213.864 227.028 214.008C226.836 214.128 226.62 214.188 226.38 214.188H223.176C222.96 214.188 222.78 214.116 222.636 213.972C222.492 213.828 222.42 213.66 222.42 213.468C222.468 212.052 222.852 210.732 223.572 209.508C224.292 208.26 225.336 207.264 226.704 206.52C228.072 205.752 229.68 205.368 231.528 205.368C233.448 205.368 235.068 205.704 236.388 206.376C237.732 207.024 238.74 207.924 239.412 209.076C240.084 210.228 240.42 211.536 240.42 213C240.42 214.608 239.964 216.06 239.052 217.356C238.164 218.652 236.796 220.044 234.948 221.532L229.836 226.716H240.096C240.36 226.716 240.564 226.8 240.708 226.968C240.876 227.112 240.96 227.316 240.96 227.58V230.136C240.96 230.376 240.876 230.58 240.708 230.748C240.564 230.916 240.36 231 240.096 231H222.888ZM244.853 233.7C244.637 233.7 244.469 233.628 244.349 233.484C244.229 233.34 244.181 233.16 244.205 232.944L245.177 226.824C245.225 226.488 245.345 226.212 245.537 225.996C245.729 225.78 245.993 225.672 246.329 225.672H249.641C249.809 225.672 249.953 225.744 250.073 225.888C250.217 226.008 250.289 226.164 250.289 226.356C250.289 226.476 250.253 226.632 250.181 226.824L247.877 232.8C247.757 233.088 247.601 233.304 247.409 233.448C247.241 233.616 247.001 233.7 246.689 233.7H244.853ZM263.382 231.36C261.27 231.36 259.47 231.024 257.982 230.352C256.518 229.68 255.414 228.84 254.67 227.832C253.95 226.8 253.566 225.744 253.518 224.664C253.518 224.448 253.59 224.28 253.734 224.16C253.902 224.016 254.094 223.944 254.31 223.944H257.55C258.078 223.944 258.426 224.184 258.594 224.664C259.122 226.392 260.73 227.256 263.418 227.256C264.882 227.256 266.034 226.92 266.874 226.248C267.714 225.552 268.134 224.568 268.134 223.296C268.134 220.896 266.634 219.696 263.634 219.696H259.926C259.662 219.696 259.446 219.612 259.278 219.444C259.11 219.276 259.026 219.072 259.026 218.832V217.32C259.026 216.936 259.194 216.576 259.53 216.24L265.974 209.94H255.678C255.438 209.94 255.234 209.856 255.066 209.688C254.898 209.52 254.814 209.316 254.814 209.076V206.7C254.814 206.436 254.886 206.22 255.03 206.052C255.198 205.884 255.414 205.8 255.678 205.8H271.122C271.386 205.8 271.602 205.884 271.77 206.052C271.938 206.22 272.022 206.436 272.022 206.7V208.86C272.022 209.22 271.866 209.556 271.554 209.868L265.326 216.276L265.758 216.312C268.062 216.504 269.886 217.2 271.23 218.4C272.598 219.6 273.282 221.316 273.282 223.548C273.282 225.132 272.85 226.512 271.986 227.688C271.146 228.864 269.97 229.776 268.458 230.424C266.97 231.048 265.278 231.36 263.382 231.36ZM284.271 231C284.031 231 283.827 230.916 283.659 230.748C283.491 230.58 283.407 230.376 283.407 230.136V211.488L277.935 215.7C277.791 215.82 277.623 215.88 277.431 215.88C277.143 215.88 276.903 215.748 276.711 215.484L275.199 213.54C275.079 213.348 275.019 213.168 275.019 213C275.019 212.712 275.151 212.472 275.415 212.28L283.479 206.052C283.695 205.884 283.995 205.8 284.379 205.8H287.547C287.811 205.8 288.015 205.884 288.159 206.052C288.327 206.196 288.411 206.4 288.411 206.664V230.136C288.411 230.376 288.327 230.58 288.159 230.748C288.015 230.916 287.811 231 287.547 231H284.271Z" fill="#303030"/>
<path d="M133.497 194H135.341V190.56H137.29C139.642 190.56 140.905 189.148 140.905 187.189C140.905 185.245 139.657 183.818 137.315 183.818H133.497V194ZM135.341 189.043V185.359H137.032C138.414 185.359 139.025 186.105 139.025 187.189C139.025 188.273 138.414 189.043 137.042 189.043H135.341ZM145.619 194L146.46 191.489H150.288L151.133 194H153.102L149.512 183.818H147.235L143.651 194H145.619ZM146.957 190.008L148.334 185.906H148.413L149.791 190.008H146.957ZM155.705 185.364H158.852V194H160.681V185.364H163.828V183.818H155.705V185.364ZM168.334 194H170.179V190.271H172.058L174.057 194H176.115L173.913 189.963C175.111 189.481 175.742 188.457 175.742 187.075C175.742 185.131 174.489 183.818 172.153 183.818H168.334V194ZM170.179 188.74V185.359H171.869C173.246 185.359 173.863 185.991 173.863 187.075C173.863 188.158 173.246 188.74 171.879 188.74H170.179ZM182.224 183.818H180.38V194H182.224V183.818ZM187.162 183.818V194H188.932V186.99H189.026L191.84 193.97H193.162L195.976 187.005H196.071V194H197.841V183.818H195.584L192.561 191.196H192.442L189.419 183.818H187.162ZM211.887 188.909C211.887 185.618 209.879 183.679 207.209 183.679C204.534 183.679 202.531 185.618 202.531 188.909C202.531 192.195 204.534 194.139 207.209 194.139C209.879 194.139 211.887 192.2 211.887 188.909ZM210.033 188.909C210.033 191.226 208.87 192.484 207.209 192.484C205.553 192.484 204.385 191.226 204.385 188.909C204.385 186.592 205.553 185.335 207.209 185.335C208.87 185.335 210.033 186.592 210.033 188.909ZM206.2 182.903L207.209 181.631L208.218 182.903H209.794V182.834L207.915 180.686H206.508L204.624 182.834V182.903H206.2ZM224.938 183.818H223.104V190.759H223.014L218.222 183.818H216.571V194H218.416V187.065H218.5L223.298 194H224.938V183.818ZM231.732 183.818H229.888V194H231.732V183.818ZM245.768 188.909C245.768 185.618 243.759 183.679 241.09 183.679C238.415 183.679 236.411 185.618 236.411 188.909C236.411 192.195 238.415 194.139 241.09 194.139C243.759 194.139 245.768 192.2 245.768 188.909ZM243.913 188.909C243.913 191.226 242.75 192.484 241.09 192.484C239.434 192.484 238.266 191.226 238.266 188.909C238.266 186.592 239.434 185.335 241.09 185.335C242.75 185.335 243.913 186.592 243.913 188.909Z" fill="#303030"/>
<g clip-path="url(#clip0_65:4665)">
<path d="M111.012 252.017L112.014 253.019L115.315 249.718L115.315 261.328L116.727 261.328L116.727 249.718L120.028 253.019L121.029 252.017L116.021 247.009L111.012 252.017Z" fill="#00AB6D"/>
</g>
<path d="M126.07 259.521H128.293L132.518 251.124V249.339H125.374V251.099H130.291V251.169L126.07 259.521ZM139.567 257.612C139.572 258.835 140.352 259.874 141.809 259.874C143.251 259.874 144.056 258.835 144.051 257.612V257.075C144.056 255.842 143.271 254.813 141.809 254.813C140.372 254.813 139.572 255.852 139.567 257.075V257.612ZM134.342 251.785C134.347 253.008 135.127 254.037 136.579 254.037C138.026 254.037 138.831 253.018 138.826 251.785V251.248C138.831 250.015 138.046 248.986 136.579 248.986C135.157 248.986 134.347 250.015 134.342 251.248V251.785ZM134.829 259.521H136.127L143.127 249.339H141.829L134.829 259.521ZM141.014 257.075C141.019 256.588 141.213 256.086 141.809 256.086C142.436 256.086 142.6 256.588 142.595 257.075V257.612C142.6 258.099 142.416 258.591 141.809 258.591C141.203 258.591 141.019 258.084 141.014 257.612V257.075ZM135.798 251.248C135.803 250.776 135.987 250.259 136.579 250.259C137.205 250.259 137.374 250.761 137.369 251.248V251.785C137.374 252.272 137.186 252.764 136.579 252.764C135.992 252.764 135.803 252.272 135.798 251.785V251.248Z" fill="#303030"/>
<path d="M158.909 249.339H157.696V257.353H157.596L152.028 249.339H150.835V259.521H152.068V251.527H152.167L157.716 259.521H158.909V249.339ZM161.794 259.521L162.818 256.637H166.934L167.958 259.521H169.251L165.512 249.339H164.24L160.501 259.521H161.794ZM163.206 255.544L164.836 250.95H164.916L166.546 255.544H163.206ZM176.405 251.885H177.598C177.544 250.348 176.127 249.2 174.158 249.2C172.209 249.2 170.678 250.333 170.678 252.044C170.678 253.416 171.672 254.231 173.263 254.688L174.516 255.046C175.59 255.345 176.544 255.723 176.544 256.737C176.544 257.85 175.47 258.586 174.059 258.586C172.845 258.586 171.772 258.049 171.672 256.896H170.399C170.519 258.566 171.871 259.7 174.059 259.7C176.405 259.7 177.738 258.407 177.738 256.757C177.738 254.848 175.928 254.231 174.874 253.953L173.84 253.674C173.084 253.475 171.871 253.078 171.871 251.984C171.871 251.01 172.766 250.294 174.118 250.294C175.351 250.294 176.286 250.88 176.405 251.885ZM190.384 249.339V255.981C190.384 257.473 189.36 258.546 187.66 258.546C185.959 258.546 184.935 257.473 184.935 255.981V249.339H183.702V256.081C183.702 258.169 185.263 259.7 187.66 259.7C190.056 259.7 191.617 258.169 191.617 256.081V249.339H190.384ZM187.123 248.305H188.157L189.708 245.998H188.336L187.123 248.305ZM194.079 259.521H200.045V258.427H195.312V249.339H194.079V259.521ZM200.044 250.433H203.246V259.521H204.478V250.433H207.68V249.339H200.044V250.433ZM210.816 249.339H209.583V259.521H210.816V249.339ZM213.288 249.339V259.521H214.442V251.785H214.541L217.723 259.521H218.836L222.018 251.785H222.118V259.521H223.271V249.339H221.799L218.339 257.791H218.22L214.76 249.339H213.288ZM226.161 259.521L227.185 256.637H231.301L232.326 259.521H233.618L229.88 249.339H228.607L224.868 259.521H226.161ZM227.573 255.544L229.203 250.95H229.283L230.914 255.544H227.573ZM240.772 251.885H241.966C241.911 250.348 240.494 249.2 238.525 249.2C236.576 249.2 235.045 250.333 235.045 252.044C235.045 253.416 236.039 254.231 237.63 254.688L238.883 255.046C239.957 255.345 240.912 255.723 240.912 256.737C240.912 257.85 239.838 258.586 238.426 258.586C237.213 258.586 236.139 258.049 236.039 256.896H234.767C234.886 258.566 236.238 259.7 238.426 259.7C240.772 259.7 242.105 258.407 242.105 256.757C242.105 254.848 240.295 254.231 239.241 253.953L238.207 253.674C237.451 253.475 236.238 253.078 236.238 251.984C236.238 251.01 237.133 250.294 238.485 250.294C239.718 250.294 240.653 250.88 240.772 251.885ZM247.89 259.521H254.314V258.427H249.581V258.348L251.868 255.902C253.618 254.027 254.135 253.152 254.135 252.024C254.135 250.453 252.862 249.2 251.072 249.2C249.287 249.2 247.93 250.413 247.93 252.203H249.103C249.103 251.044 249.854 250.274 251.032 250.274C252.136 250.274 252.981 250.95 252.981 252.024C252.981 252.963 252.429 253.659 251.251 254.947L247.89 258.626V259.521ZM255.91 257.433H260.702V259.521H261.875V257.433H263.268V256.339H261.875V249.339H260.384L255.91 256.419V257.433ZM260.702 256.339H257.242V256.26L260.623 250.91H260.702V256.339ZM265.31 259.521H266.543V254.967H271.972V259.521H273.205V249.339H271.972V253.873H266.543V249.339H265.31V259.521Z" fill="#303030"/>
<defs>
<clipPath id="clip0_65:4665">
<rect width="17" height="17" fill="white" transform="translate(104 254.021) rotate(-45)"/>
</clipPath>
</defs>
</svg>
